<svg width="264" height="83" viewBox="0 0 264 83" fill="none" xmlns="http://www.w3.org/2000/svg">
<g clip-path="url(#clip0_38_191)">
<path d="M112.619 57.5605V44.4765H122.187C128.93 44.4765 134.809 39.5196 134.809 33.1792C134.809 26.7236 128.93 21.8821 122.187 21.8821H104.089V57.5605H112.619ZM122.187 29.0868C124.665 29.0868 126.279 31.1042 126.279 33.1792C126.279 35.4848 124.435 37.2716 122.187 37.2716H112.619V29.0868H122.187ZM146.983 58.0216C150.21 58.0216 153.034 56.523 155.051 54.275V57.5605H162.89V31.623H155.051V34.8508C153.091 32.6605 150.21 31.2196 146.983 31.2196C139.49 31.2196 133.899 36.9834 133.899 44.5917C133.899 52.2 139.433 58.0216 146.983 58.0216ZM148.365 37.0986C152.285 37.0986 154.994 40.4417 154.994 44.5917C154.994 50.125 151.016 52.0848 148.365 52.0848C144.734 52.0848 141.795 48.8571 141.795 44.5917C141.795 40.4993 144.734 37.0986 148.365 37.0986ZM166.885 23.323C166.885 25.6861 169.248 27.6459 171.956 27.6459C174.666 27.6459 176.971 25.6285 176.971 23.323C176.971 21.0174 174.608 19 171.956 19C169.248 19 166.885 21.0174 166.885 23.323ZM168.037 31.623V57.5605H175.875V31.623H168.037ZM181.342 67.3015H189.18V54.3327C191.139 56.523 193.963 57.964 197.249 57.964C204.742 57.964 210.332 52.2 210.332 44.5917C210.332 36.9834 204.799 31.2196 197.249 31.2196C194.022 31.2196 191.139 32.6605 189.18 34.9084V31.623H181.342V67.3015ZM189.18 44.5917C189.18 39.0584 193.214 37.0986 195.866 37.0986C199.497 37.0986 202.436 40.3265 202.436 44.5917C202.436 48.6841 199.497 52.0848 195.866 52.0848C191.947 52.0848 189.18 48.7417 189.18 44.5917ZM212.165 44.5917C212.165 52.0848 218.275 58.0216 226.746 58.0216C233.547 58.0216 238.216 54.1022 240.176 49.2605L232.107 49.1452C231.243 50.5861 229.225 51.6236 226.746 51.6236C222.827 51.6236 220.695 49.0875 220.291 46.3785H240.925C242.193 38.1938 236.083 31.1618 226.746 31.1618C218.794 31.1618 212.165 37.214 212.165 44.5917ZM220.579 41.8827C221.214 39.2313 223.346 36.9834 226.746 36.9834C229.975 36.9834 232.222 38.7125 232.971 41.8827H220.579ZM252.052 57.5605V44.5917C252.052 41.5368 254.876 39.116 257.758 39.116C258.564 39.116 259.314 39.289 260.063 39.6924L263.925 32.6029C263.003 31.9688 261.447 31.5654 259.718 31.5654C256.951 31.5654 253.724 32.5452 252.052 34.9084V31.623H244.214V57.5605H252.052Z" fill="#131313"/>
<rect width="83" height="83" rx="15" fill="#2351FF"/>
<mask id="mask0_38_191" style="mask-type:luminance" maskUnits="userSpaceOnUse" x="22" y="19" width="44" height="44">
<path d="M65.9973 19H22V63H65.9973V19Z" fill="white"/>
</mask>
<g mask="url(#mask0_38_191)">
<path d="M65.9973 33.0555V48.9445C65.9973 50.6319 64.6292 52 62.9419 52H58.0533C56.366 52 54.9979 53.3681 54.9979 55.0555V59.9445C54.9979 61.6319 53.6299 63 51.9426 63H47.054C45.3667 63 43.9986 61.6319 43.9986 59.9445V55.0555C43.9986 53.3681 45.3667 52 47.054 52H51.9426C53.6299 52 54.9979 50.6319 54.9979 48.9445V33.0555C54.9979 31.3681 53.6299 30 51.9426 30H36.0547C34.3674 30 32.9993 31.3681 32.9993 33.0555V59.9445C32.9993 61.6319 31.6313 63 29.944 63H25.0554C23.368 63 22 61.6319 22 59.9445V22.0556C22 20.3681 23.368 19 25.0554 19H51.9426C53.6299 19 54.9979 20.3681 54.9979 22.0556V26.9445C54.9979 28.6319 56.366 30 58.0533 30H62.9419C64.6292 30 65.9973 31.3681 65.9973 33.0555Z" fill="white"/>
</g>
</g>
<defs>
<clipPath id="clip0_38_191">
<rect width="264" height="83" fill="white"/>
</clipPath>
</defs>
</svg>
